# xmcd
#
# Track frame offsets: 
#        150
#        13400
#        28738
#        42675
#        56575
#        69648
#        82463
#        97013
#        108675
#        123228
#
# Disc length: 1884 seconds
#
# Revision: 2
# Processed by: cddbd v1.4PL0 Copyright (c) Steve Scherf et al.
# Submitted via: ExactAudioCopy v0.95a3
#
DISCID=99075a0a
DTITLE=Tanya Tucker - Greatest Hits Encore
DYEAR=1990
DGENRE=Country
TTITLE0=San Antonio Stroll
TTITLE1=Delta Dawn
TTITLE2=Don't Believe My Heart Can Stand Another You
TTITLE3=The Jamestown Ferry
TTITLE4=Here's Some Love
TTITLE5=Would You Lay With Me (In A Field Of Stone)
TTITLE6=Blood Red And Going Down
TTITLE7=Pecos Promenade
TTITLE8=What's Your Moma's Name Child
TTITLE9=Texas (When I Die)
EXTD=
EXTT0=
EXTT1=
EXTT2=
EXTT3=
EXTT4=
EXTT5=
EXTT6=
EXTT7=
EXTT8=
EXTT9=
PLAYORDER=
